<?xml version="1.0" standalone="no"?>
<!DOCTYPE svg PUBLIC "-//W3C//DTD SVG 20010904//EN"
 "http://www.w3.org/TR/2001/REC-SVG-20010904/DTD/svg10.dtd">
<svg version="1.0" xmlns="http://www.w3.org/2000/svg"
 width="159.000000pt" height="159.000000pt" viewBox="0 0 159.000000 159.000000"
 preserveAspectRatio="xMidYMid meet">
<metadata>
Created by potrace 1.14, written by Peter Selinger 2001-2017
</metadata>
<g transform="translate(0.000000,159.000000) scale(0.100000,-0.100000)"
fill="#000000" stroke="none">
<path d="M718 1152 l-198 -107 0 -132 c0 -73 3 -133 6 -133 4 0 125 62 270
138 l264 137 0 73 c0 68 -2 76 -29 103 -53 52 -86 44 -313 -79z"/>
<path d="M790 814 l-265 -142 -2 -139 -3 -138 79 -57 c84 -62 108 -69 134 -40
14 15 17 40 17 119 l0 101 138 72 c75 39 145 79 155 89 15 15 17 33 15 148
l-3 130 -265 -143z"/>
</g>
</svg>
