<svg fill="none" height="18" viewBox="0 0 18 18" width="18" xmlns="http://www.w3.org/2000/svg"><path d="m9.72072 1c1.51628.14012 2.96128.70918 4.16598 1.64059s2.1192 2.18665 2.6365 3.61883.616 2.98208.2846 4.46828c-.3314 1.4863-1.0792 2.8474-2.1559 3.9242-1.0768 1.0767-2.4379 1.8245-3.9242 2.1559-1.4862.3314-3.0361.2327-4.46828-.2846s-2.68742-1.4318-3.61883-2.6365-1.50047-2.6497-1.64059-4.16598c1.20101.88778 2.68075 1.31488 4.1701 1.20388 1.48935-.1111 2.88937-.753 3.94543-1.80907 1.05607-1.05606 1.69797-2.45608 1.80907-3.94543.111-1.48935-.3161-2.96909-1.20388-4.1701z" stroke="#18191a" stroke-linecap="round" stroke-linejoin="round" stroke-width="2"/></svg>