<?xml version="1.0" standalone="no"?>
<!DOCTYPE svg PUBLIC "-//W3C//DTD SVG 20010904//EN"
 "http://www.w3.org/TR/2001/REC-SVG-20010904/DTD/svg10.dtd">
<svg version="1.0" xmlns="http://www.w3.org/2000/svg"
 width="237.000000pt" height="237.000000pt" viewBox="0 0 237.000000 237.000000"
 preserveAspectRatio="xMidYMid meet">
<metadata>
Created by potrace 1.14, written by Peter Selinger 2001-2017
</metadata>
<g transform="translate(0.000000,237.000000) scale(0.100000,-0.100000)"
fill="#000000" stroke="none">
<path d="M1145 1581 c-293 -158 -285 -149 -285 -302 0 -124 12 -149 72 -149
34 0 603 289 626 318 18 24 15 147 -5 189 -22 47 -67 73 -123 73 -38 -1 -81
-20 -285 -129z"/>
<path d="M1067 1102 c-189 -100 -304 -166 -315 -182 -12 -18 -17 -45 -17 -95
0 -80 15 -113 68 -146 59 -37 97 -25 367 120 135 73 251 139 258 148 8 12 12
59 12 149 0 126 -1 134 -22 148 -12 9 -29 16 -38 15 -8 0 -149 -71 -313 -157z"/>
</g>
</svg>
